<svg xmlns="http://www.w3.org/2000/svg" viewBox="0 0 512 512">
  <title>Bethlem app icon — navy</title>
  <rect width="512" height="512" rx="114" fill="#042C53"></rect>
  <g transform="translate(256,256) rotate(-16) scale(7) translate(-28,-28.5)">
    <path d="M10,12 C24,8.5 24,8.5 38,12 C24,15.5 24,15.5 10,12Z" fill="#FFFFFF" opacity="0.40"></path>
    <path d="M3,23 C28,16.5 28,16.5 53,23 C28,29.5 28,29.5 3,23Z" fill="#FFFFFF" opacity="1"></path>
    <path d="M8,34 C27,29 27,29 46,34 C27,39 27,39 8,34Z" fill="#FFFFFF" opacity="0.70"></path>
    <path d="M6,45 C23,41.5 23,41.5 40,45 C23,48.5 23,48.5 6,45Z" fill="#FFFFFF" opacity="0.45"></path>
  </g>
</svg>