<svg xmlns="http://www.w3.org/2000/svg" viewBox="0 0 210 56">
  <title>Bethlem logo — mono coral</title>
  
  <g transform="rotate(-16, 28, 28)">
  <path d="M10,12 C24,8.5 24,8.5 38,12 C24,15.5 24,15.5 10,12Z" fill="#D85A30" opacity="0.40"></path>
  <path d="M3,23 C28,16.5 28,16.5 53,23 C28,29.5 28,29.5 3,23Z" fill="#D85A30" opacity="1"></path>
  <path d="M8,34 C27,29 27,29 46,34 C27,39 27,39 8,34Z" fill="#D85A30" opacity="0.70"></path>
  <path d="M6,45 C23,41.5 23,41.5 40,45 C23,48.5 23,48.5 6,45Z" fill="#D85A30" opacity="0.45"></path>
  </g>
  <text x="72" y="28" font-family="Lora,Georgia,serif" font-size="28" font-weight="700" fill="#D85A30" dominant-baseline="middle" letter-spacing="0.02em">Bethlem</text>
</svg>